<svg xmlns="http://www.w3.org/2000/svg" viewBox="0 0 24 24" fill="#FF5A5F"><path d="M12.001 18.275c-1.353-1.697-2.148-3.32-2.468-4.64-.37-1.555-.148-2.797.617-3.534.442-.42 1.016-.636 1.65-.636h.4c.635 0 1.208.217 1.65.636.766.737.988 1.98.618 3.534-.32 1.32-1.115 2.943-2.467 4.64zM12 21.47c-1.986-2.267-3.15-4.38-3.575-6.16-.5-2.083-.19-3.782.872-4.8.63-.61 1.47-.94 2.36-.97h.686c.89.03 1.73.36 2.36.97 1.063 1.018 1.373 2.717.873 4.8-.425 1.78-1.59 3.893-3.576 6.16zm9.231-6.836c-.237 1.89-1.345 3.553-3.08 4.634-.223.14-.39.13-.514-.03-1.276-1.62-2.22-3.183-2.776-4.64a7.876 7.876 0 01-.395-1.555c-.33-1.977.085-3.582 1.196-4.648.815-.778 1.88-1.21 3.012-1.244.154-.005.264.084.31.24.594 2.337.537 4.98-.753 7.243zm-18.462 0C3.006 16.524 2.95 13.88 3.543 11.544c.046-.156.156-.245.31-.24 1.132.034 2.197.466 3.012 1.244 1.111 1.066 1.526 2.671 1.196 4.648a7.876 7.876 0 01-.395 1.555c-.556 1.457-1.5 3.02-2.776 4.64-.124.16-.291.17-.514.03-1.735-1.081-2.843-2.744-3.08-4.634l-.027-.153z"/></svg>