<svg xmlns="http://www.w3.org/2000/svg" viewBox="0 0 200 50" fill="#1A4CA1"><title>Cognizant</title><path d="M25 5C12 5 2 15 2 27s10 22 23 22c8 0 15-4 19-10l-8-5c-2 4-6 6-11 6-8 0-14-6-14-13s6-13 14-13c5 0 9 2 11 6l8-5C40 9 33 5 25 5z"/><path d="M55 8h10v38H55z"/><path d="M75 27c0-12 9-20 21-20s21 8 21 20-9 20-21 20-21-8-21-20zm32 0c0-7-5-12-11-12s-11 5-11 12 5 12 11 12 11-5 11-12z"/><path d="M125 27c0-12 9-20 21-20 8 0 15 4 18 10l-8 5c-2-4-6-6-10-6-7 0-12 5-12 11v1c0 6 5 11 12 11 4 0 8-2 10-6l8 5c-3 6-10 10-18 10-12 0-21-8-21-20z"/></svg>