<svg xmlns="http://www.w3.org/2000/svg" viewBox="0 0 24 24" fill="#003A70"><path d="M12 0C5.373 0 0 5.373 0 12s5.373 12 12 12 12-5.373 12-12S18.627 0 12 0zm5.894 17.784c-1.09.746-2.817 1.09-4.254 1.09-2.29 0-4.327-.727-5.89-2.035l1.163-1.636c1.2 1.018 2.763 1.563 4.472 1.563 1.2 0 2.472-.327 3.2-.872.727-.545 1.09-1.236 1.09-2.072 0-.873-.472-1.527-1.417-1.964-.945-.436-2.29-.654-4.035-.654H10.86v-2.036h1.2c1.49 0 2.69-.182 3.563-.545.872-.364 1.309-.91 1.309-1.636 0-.69-.364-1.236-1.09-1.636-.728-.4-1.71-.6-2.946-.6-1.527 0-2.872.472-4.035 1.418L7.706 5.07C9.27 3.87 11.197 3.27 13.49 3.27c1.89 0 3.417.436 4.58 1.309 1.163.872 1.745 1.963 1.745 3.272 0 1.745-1.09 2.945-3.272 3.6 1.236.218 2.218.727 2.945 1.527.727.8 1.09 1.745 1.09 2.836 0 1.382-.563 2.509-1.69 3.382z"/></svg>