<svg xmlns="http://www.w3.org/2000/svg" viewBox="0 0 24 24" fill="#000000"><path d="M22.282 9.821a5.985 5.985 0 00-.516-4.91 6.046 6.046 0 00-6.51-2.9A6.065 6.065 0 0011.11.418a6.047 6.047 0 00-5.77 4.212 6.013 6.013 0 00-4.027 2.916 6.042 6.042 0 00.741 7.089 5.985 5.985 0 00.516 4.911 6.046 6.046 0 006.51 2.9A6.065 6.065 0 0012.89 23.582a6.047 6.047 0 005.77-4.212 6.013 6.013 0 004.027-2.916 6.042 6.042 0 00-.741-7.089 5.985 5.985 0 00.336-.544zM12.89 21.932a4.525 4.525 0 01-2.907-1.054l.144-.082 4.834-2.79a.778.778 0 00.395-.68v-6.812l2.043 1.18a.072.072 0 01.04.055v5.64a4.547 4.547 0 01-4.549 4.543zm-9.776-4.168a4.518 4.518 0 01-.54-3.046l.144.085 4.834 2.79a.78.78 0 00.788 0l5.905-3.41v2.36a.072.072 0 01-.028.061l-4.89 2.824a4.547 4.547 0 01-6.213-1.664zm-1.272-10.54a4.518 4.518 0 012.37-1.99v5.738a.778.778 0 00.395.68l5.905 3.41-2.044 1.18a.072.072 0 01-.068.005l-4.89-2.824A4.547 4.547 0 011.842 7.224zm16.804 3.912l-5.905-3.41 2.044-1.18a.072.072 0 01.068-.005l4.89 2.824a4.547 4.547 0 01-.701 8.193v-5.742a.778.778 0 00-.396-.68zm2.035-3.065l-.144-.085-4.834-2.79a.78.78 0 00-.788 0L9.81 8.606V6.247a.072.072 0 01.028-.061l4.89-2.824a4.547 4.547 0 016.753 4.709zm-12.79 4.21L5.847 11.1a.072.072 0 01-.04-.055V5.403a4.547 4.547 0 017.456-3.49l-.144.082-4.834 2.79a.778.778 0 00-.395.68v6.816zm1.11-2.392l2.63-1.52 2.63 1.52v3.037l-2.63 1.52-2.63-1.52v-3.037z"/></svg>