<svg xmlns="http://www.w3.org/2000/svg" viewBox="0 0 168 168" fill="#1DB954"><path d="M84 0C37.6 0 0 37.6 0 84s37.6 84 84 84 84-37.6 84-84S130.4 0 84 0zm38.5 121.2c-1.5 2.5-4.7 3.2-7.1 1.7-19.5-11.9-44.1-14.6-73-8-2.8.6-5.6-1.1-6.2-3.9-.6-2.8 1.1-5.6 3.9-6.2 31.7-7.2 58.8-4.1 80.6 9.3 2.5 1.5 3.3 4.6 1.8 7.1zm10.3-22.9c-1.9 3-5.9 4-8.9 2.1-22.3-13.7-56.3-17.7-82.7-9.7-3.3 1-6.8-.9-7.8-4.2-1-3.3.9-6.8 4.2-7.8 30.1-9.1 67.5-4.7 93 11.1 3.1 1.9 4.1 5.9 2.2 8.5zm.9-23.8c-26.8-15.9-71-17.3-96.5-9.6-4.1 1.2-8.4-1.1-9.6-5.2-1.2-4.1 1.1-8.4 5.2-9.6 29.3-8.9 78-7.2 108.7 11.1 3.7 2.2 4.9 6.9 2.7 10.6-2.2 3.7-7 4.9-10.5 2.7z"/></svg>