<svg xmlns="http://www.w3.org/2000/svg" viewBox="0 0 24 24" fill="#E23744"><path d="M12 2C6.48 2 2 6.48 2 12s4.48 10 10 10 10-4.48 10-10S17.52 2 12 2zm4.64 14.19c-.68.68-1.62 1.06-2.64 1.06H10c-1.02 0-1.96-.38-2.64-1.06C6.68 15.51 6.3 14.57 6.3 13.55V10c0-1.02.38-1.96 1.06-2.64C8.04 6.68 8.98 6.3 10 6.3h4c1.02 0 1.96.38 2.64 1.06.68.68 1.06 1.62 1.06 2.64v3.55c0 1.02-.38 1.96-1.06 2.64zM15.2 10c0-.66-.54-1.2-1.2-1.2H10c-.66 0-1.2.54-1.2 1.2v3.55c0 .66.54 1.2 1.2 1.2h4c.66 0 1.2-.54 1.2-1.2V10z"/></svg>